<?xml version="1.0" standalone="no"?>
<!DOCTYPE svg PUBLIC "-//W3C//DTD SVG 20010904//EN"
 "http://www.w3.org/TR/2001/REC-SVG-20010904/DTD/svg10.dtd">
<svg version="1.0" xmlns="http://www.w3.org/2000/svg"
 width="260.000000pt" height="260.000000pt" viewBox="0 0 260.000000 260.000000"
 preserveAspectRatio="xMidYMid meet">
<metadata>
Created by potrace 1.14, written by Peter Selinger 2001-2017
</metadata>
<g transform="translate(0.000000,260.000000) scale(0.100000,-0.100000)"
fill="#000000" stroke="none">
<path d="M1125 2589 c-239 -39 -430 -119 -615 -260 -412 -313 -596 -850 -465
-1359 58 -230 164 -411 344 -590 246 -245 541 -369 887 -375 306 -5 563 77
802 257 257 192 453 505 498 796 3 20 9 56 14 80 13 72 4 319 -15 407 -57 268
-160 465 -340 654 -184 193 -409 316 -690 376 -88 19 -336 27 -420 14z m415
-154 c88 -21 88 -21 145 -40 269 -91 521 -314 654 -581 37 -75 85 -208 95
-264 10 -62 16 -98 21 -141 l5 -45 -374 -1 -374 0 -12 45 c-17 71 -48 122
-109 183 -67 66 -120 96 -206 114 -146 30 -287 -15 -386 -123 -56 -61 -83
-108 -99 -174 l-12 -45 -371 1 -372 1 3 55 c7 115 52 271 114 395 165 329 479
564 840 629 96 18 350 12 438 -9z m-127 -883 c172 -77 216 -310 84 -443 -58
-58 -116 -82 -197 -82 -154 0 -273 117 -274 268 0 96 35 169 110 228 70 54
191 67 277 29z m-513 -361 c27 -108 122 -220 226 -268 55 -25 158 -43 214 -36
103 13 165 42 244 113 56 52 106 137 120 206 l7 31 375 0 375 -1 -6 -55 c-4
-31 -18 -103 -32 -161 -96 -395 -397 -712 -788 -829 -127 -38 -221 -50 -370
-46 -191 5 -322 37 -486 120 -352 176 -591 524 -633 921 l-6 50 374 1 374 0
12 -46z"/>
<path d="M1241 1423 c-52 -27 -76 -66 -76 -124 2 -145 190 -188 258 -58 30 58
9 138 -46 174 -38 25 -97 28 -136 8z"/>
</g>
</svg>
