<?xml version="1.0" encoding="UTF-8" standalone="no"?><!DOCTYPE svg PUBLIC "-//W3C//DTD SVG 1.1//EN" "http://www.w3.org/Graphics/SVG/1.1/DTD/svg11.dtd"><svg width="100%" height="100%" viewBox="0 0 32 32" version="1.1" xmlns="http://www.w3.org/2000/svg" xmlns:xlink="http://www.w3.org/1999/xlink" xml:space="preserve" xmlns:serif="http://www.serif.com/" style="fill-rule:evenodd;clip-rule:evenodd;stroke-linejoin:round;stroke-miterlimit:2;"><path id="Search-Icon" serif:id="Search Icon" d="M31.409,31.409c-0.787,0.788 -2.064,0.788 -2.852,-0l-6.185,-6.185c-2.336,1.745 -5.224,2.79 -8.364,2.79c-7.737,0 -14.008,-6.27 -14.008,-14.006c0,-7.737 6.271,-14.008 14.008,-14.008c7.736,0 14.007,6.271 14.007,14.008c0,3.139 -1.046,6.028 -2.791,8.364l6.185,6.185c0.788,0.788 0.788,2.064 0,2.852Zm-17.401,-27.407c-5.526,-0 -10.006,4.48 -10.006,10.006c0,5.525 4.48,10.005 10.006,10.005c5.525,-0 10.005,-4.48 10.005,-10.005c0,-5.526 -4.48,-10.006 -10.005,-10.006Z" style="fill:#344650;"/></svg>